<?xml version="1.0" encoding="UTF-8"?>
<svg id="timer" xmlns="http://www.w3.org/2000/svg" xmlns:xlink="http://www.w3.org/1999/xlink" viewBox="0 0 470 640">
  <defs>
    <style>
      .cls-1, .cls-2 {
        stroke-width: 0px;
      }

      .cls-2 {
        fill: none;
      }
    </style>
    <clipPath id="clippath">
      <rect class="cls-2" x="-443.5" y="749" width="1920" height="1080"/>
    </clipPath>
  </defs>
  <g id="symbols">
    <path class="cls-1" d="m27.17,306.56c-2.27-.09-3.82-.09-4.64,0-1.15.09-1.96.4-2.43.91-.7.75-.9,3.2-.6,7.35,3.16-.52,5.67.05,7.52,1.69,1.34,1.2,2.58,3.29,3.73,6.29,2.93,7.45,2.39,13.58-1.62,18.39-1.5-1.9-2.27-5.17-2.32-9.81-.02-4.41-1.04-7.61-3.06-9.6-.52.54-1.57,1.64-3.16,3.3-1.55,1.59-2.97,3.06-4.25,4.39-.4-2.53-.94-5.95-1.62-10.27-.68-4.12-1.18-7.22-1.51-9.28-2.79-.4-6.41-.9-10.86-1.51.12-1.71.6-2.86,1.44-3.45.61-.44,1.57-.62,2.88-.53,1.99.09,3.08.13,3.27.11,1.17-.09,2.02-.57,2.53-1.44-.09-1.24-.26-3.16-.49-5.77-.26-3.16-.45-5.46-.56-6.89,2.67,1.03,4.35,2.8,5.03,5.31.98,3.75,1.52,5.7,1.62,5.84,1.15-.21,1.92-.41,2.32-.6.59-.26,1.04-.7,1.37-1.34.49-.96,1.21-4.11,2.14-9.46,1.62,2.32,2.47,3.56,2.57,3.73.05.12.37,1.16.98,3.13,1.41-.4,3.97-1.16,7.7-2.29-1.9,2.81-4.56,6.74-7.98,11.78Zm-6.05,29.53c.12.75-.84,2.21-2.88,4.39-1.45-2.13-2.24-3.59-2.36-4.36-.09-.75.22-2.36.95-4.82,2.77,2.41,4.2,4.01,4.29,4.78Z"/>
  </g>
</svg>