<?xml version="1.0" encoding="UTF-8"?>
<svg id="timer" xmlns="http://www.w3.org/2000/svg" xmlns:xlink="http://www.w3.org/1999/xlink" viewBox="0 0 470 640">
  <defs>
    <style>
      .cls-1, .cls-2 {
        stroke-width: 0px;
      }

      .cls-2 {
        fill: none;
      }
    </style>
    <clipPath id="clippath">
      <rect class="cls-2" x="-443.5" y="749" width="1920" height="1080"/>
    </clipPath>
  </defs>
  <g id="symbols">
    <path class="cls-1" d="m316.89,70.57c4.71-.47,8.89.4,12.55,2.6,3.96,2.39,7.15,5.46,9.56,9.21,2.32,3.61,3.71,7.5,4.18,11.67.49,4.17.02,8.18-1.41,12.02-1.52,4.03-3.96,7.48-7.31,10.34-1.66,1.43-3.34,2.1-5.03,2-1.5-.09-2.38-.89-2.64-2.39-.28-1.5.3-2.62,1.76-3.38,6.59-3.42,9.71-8.28,9.39-14.59-.38-7.62-3.93-14.3-10.65-20.04-1.73-1.48-4-2.36-6.79-2.64-1.48-.16-4.06-.14-7.73.07-.4.02-2.95.22-7.66.6,2.93-3.16,6.86-4.99,11.78-5.48Zm.91,21.3c-3.63-2.65-6.61-4.82-8.93-6.5,1.83-1.38,3.74-1.83,5.73-1.34,1.03.23,2.6,1.01,4.71,2.32,3.47,2.13,5.64,3.68,6.5,4.64,1.92,2.16,2.45,4.79,1.58,7.91-1.22-.89-4.42-3.23-9.6-7.03Zm2.25,10.76c.68.61.98,1.05.91,1.34-.14.49-.54,1.01-1.2,1.55-.66.54-1.29.84-1.9.91-.42.05-1-.18-1.72-.67-.12-.07-.42-.28-.91-.63-.4-.28-.72-.49-.95-.63,1.34-1.45,2.51-2.73,3.52-3.83l2.25,1.97Z"/>
  </g>
</svg>