<?xml version="1.0" encoding="UTF-8"?>
<svg id="timer" xmlns="http://www.w3.org/2000/svg" xmlns:xlink="http://www.w3.org/1999/xlink" viewBox="0 0 470 640">
  <defs>
    <style>
      .cls-1, .cls-2 {
        stroke-width: 0px;
      }

      .cls-2 {
        fill: none;
      }
    </style>
    <clipPath id="clippath">
      <rect class="cls-2" x="-443.5" y="749" width="1920" height="1080"/>
    </clipPath>
  </defs>
  <g id="symbols">
    <path class="cls-1" d="m148.79,91.21c-.56-.05-1.76-.12-3.59-.21-1.5-.07-2.68-.19-3.55-.35-7.71-1.27-9.2-4.36-4.46-9.28,1.73-1.8,6.48-5.72,14.24-11.74.05-.05,1.9-.32,5.55-.81-2.13,2.11-4.92,4.89-8.37,8.33-3.66,3.63-6.36,6.33-8.12,8.09,1.1.19,3.3.49,6.61.91,2.67.35,4.76.69,6.26,1.02,4.45,1.01,7.75,2.88,9.88,5.62.84-.37,1.9-.86,3.16-1.44,1.57-.7,2.58-1.16,3.02-1.37.47,1.22.7,1.84.7,1.86-1.95,2.84-3.16,6.23-3.66,10.2-.16,1.22-.29,4.75-.39,10.58-.02.21-.42,2.47-1.2,6.79-2.02-.82-3.41-1.85-4.18-3.09-.59-.94-.87-2.13-.84-3.59.02-.37.07-.98.14-1.83.07-.77.11-1.37.11-1.79-.02-1.34-.38-2.41-1.05-3.23-1.55.33-3.23,1.04-5.06,2.14-.54.3-1.34.8-2.39,1.48-1.05.68-1.85,1.18-2.39,1.51-4.03,2.39-8.11,3.19-12.23,2.39,1.17-.8,5.07-3.41,11.71-7.84,4.5-3.02,8.12-5.46,10.86-7.31-1.99-4.17-5.58-6.52-10.76-7.03Zm-7.35,9.91c3.16-2.37,5.79-4.31,7.88-5.84-.12,3.54-1.66,6.33-4.64,8.37-.66.47-1.96,1.22-3.9,2.25-1.62.89-2.8,1.66-3.55,2.32-.28-.23-.7-.59-1.27-1.05-.59-.44-1.02-.79-1.3-1.02,1.36-1.01,3.62-2.68,6.79-5.03Z"/>
  </g>
</svg>