<?xml version="1.0" encoding="UTF-8"?>
<svg id="timer" xmlns="http://www.w3.org/2000/svg" xmlns:xlink="http://www.w3.org/1999/xlink" viewBox="0 0 470 640">
  <defs>
    <style>
      .cls-1, .cls-2 {
        stroke-width: 0px;
      }

      .cls-2 {
        fill: none;
      }
    </style>
    <clipPath id="clippath">
      <rect class="cls-2" x="-443.5" y="749" width="1920" height="1080"/>
    </clipPath>
  </defs>
  <g id="symbols">
    <path class="cls-1" d="m136.59,513.75c-.07-.89-.34-2.25-.81-4.08-.52-1.99-.83-3.47-.95-4.43,1.71-.05,7.36-.57,16.95-1.58,6.87-.73,12.54-.77,17.02-.14.05.23.11.59.18,1.05.07.47.12.82.14,1.05-6.63.7-15.81,1.68-27.53,2.92-.35,4.62-.54,6.83-.56,6.64.37,2.27,2.34,3.87,5.91,4.78-3.12,2.67-5.24,5.93-6.36,9.77-1.15,3.87-1.44,8.84-.88,14.91,1.73-.96,5.46-3.9,11.18-8.82,4.52-3.89,9.18-6.52,13.96-7.88-1.76,3.12-2.68,4.72-2.78,4.82-8.48,7.59-14.87,13.14-19.16,16.63-.91.73-2.03,1.35-3.34,1.86-1.45.56-2.67.77-3.66.63-1.85-.23-2.95-1.02-3.3-2.36-.14-.59-.11-1.82.11-3.69.19-1.59.63-4.69,1.34-9.28.59-3.87.96-6.95,1.12-9.25.07-.8-.23-1.84-.91-3.13-1.36-2.6-2.03-3.87-2-3.8,3.12-1.5,4.57-3.71,4.36-6.64Zm27.6,9.6c-5.67-2.62-8.51-4.5-8.51-5.62s2.84-3.81,8.51-7.98v13.61Z"/>
  </g>
</svg>