<?xml version="1.0" encoding="UTF-8"?>
<svg id="timer" xmlns="http://www.w3.org/2000/svg" xmlns:xlink="http://www.w3.org/1999/xlink" viewBox="0 0 470 640">
  <defs>
    <style>
      .cls-1, .cls-2 {
        stroke-width: 0px;
      }

      .cls-2 {
        fill: none;
      }
    </style>
    <clipPath id="clippath">
      <rect class="cls-2" x="-443.5" y="749" width="1920" height="1080"/>
    </clipPath>
  </defs>
  <g id="symbols">
    <path class="cls-1" d="m316.36,504.36c2.67,1.29,4.37,2.43,5.1,3.41.73,1.01,1.95,3.88,3.66,8.61,4.08-.68,10.1-1.68,18.07-2.99-5.48,11.95-8.37,18.38-8.65,19.27-.3.98-1.64,7.7-4.01,20.14-2.13.54-3.57.3-4.32-.7-.35-.49-.68-1.73-.98-3.73-.3-2.06-1.64-10.39-4.01-25-3.16-.59-6.54-1.22-10.12-1.9-.35-2.46.39-4.04,2.21-4.75l4.75-1.83c-1.12-7.1-1.69-10.62-1.69-10.55Zm10.9,21.9c.4,1.48.7,2.65.91,3.52.16,0,.41.01.74.04.35.02.61.04.77.04.28-.8,1.38-3.91,3.3-9.35-3.02.84-5.25,1.48-6.68,1.9.19.75.5,2.04.95,3.87Zm6.54-23.73c-1.92,5.44-3.02,8.56-3.3,9.35-.16-.02-.42-.05-.77-.07-.33,0-.57-.01-.74-.04-.21-.84-.5-2.02-.88-3.52-.47-1.83-.8-3.12-.98-3.87,1.43-.4,3.66-1.02,6.68-1.86Zm10.16,21.69l1.97.49c-.7,3-1.78,7.48-3.23,13.43-1.43,5.98-2.51,10.45-3.23,13.43-1.34-.28-2.33-.49-2.99-.63-.52-10.03,1.98-18.94,7.49-26.72Z"/>
  </g>
</svg>