<?xml version="1.0" encoding="UTF-8"?>
<svg id="timer" xmlns="http://www.w3.org/2000/svg" xmlns:xlink="http://www.w3.org/1999/xlink" viewBox="0 0 470 640">
  <defs>
    <style>
      .cls-1, .cls-2 {
        stroke-width: 0px;
      }

      .cls-2 {
        fill: none;
      }
    </style>
    <clipPath id="clippath">
      <rect class="cls-2" x="-443.5" y="749" width="1920" height="1080"/>
    </clipPath>
  </defs>
  <g id="symbols">
    <path class="cls-1" d="m456.14,320.23c-.26-.12-2.18-.76-5.77-1.93-1.36,1.69-3.04,3.75-5.03,6.19-2.93,3.61-4.54,5.6-4.82,5.98-.23-.14-.56-.35-.98-.63-.45-.26-.77-.46-.98-.6.66-1.29,1.68-3.32,3.06-6.08,1.43-2.86,2.58-5.13,3.45-6.82-5.95-1.55-9.09-2.37-9.42-2.46-2.58-.82-4.14-1.91-4.68-3.27-.56-1.38-.12-3.15,1.34-5.31.47-.7,4.49-5.77,12.06-15.19.42,3.3-.55,6.68-2.92,10.12-2.62,3.89-4.03,6.69-4.22,8.4,1.01.28,2.66.75,4.96,1.41,2.2.63,3.94,1.14,5.2,1.51,4.85-6.02,7.43-9.22,7.73-9.6.33.12.82.32,1.48.6-.84,3.09-1.3,4.72-1.37,4.89-.09.26-.91,2.06-2.46,5.41,4.99,2.34,7.65,3.6,7.98,3.76,3.07,1.71,4.89,3.79,5.45,6.22.59,2.48-.19,5.05-2.32,7.7-2.2,2.72-4.95,4.93-8.23,6.64-8.32,4.31-18.01,5.47-29.07,3.48-1.62-.28-3.5-1.53-5.66-3.76-.26-.26-.32-.82-.18-1.69.3-1.73.44-2.53.42-2.39,7.83,4.06,15.76,5.12,23.8,3.2,3.77-.89,7.07-2.41,9.88-4.57,2.91-2.25,5.05-5,6.43-8.26-3.23-1.88-4.95-2.86-5.13-2.95Z"/>
  </g>
</svg>