<?xml version="1.0" encoding="UTF-8"?>
<svg xmlns="http://www.w3.org/2000/svg" xmlns:xlink="http://www.w3.org/1999/xlink" viewBox="0 0 1920 1080">
  <defs>
    <style>
      .cls-1 {
        fill: url(#linear-gradient-12);
      }

      .cls-1, .cls-2, .cls-3, .cls-4, .cls-5, .cls-6, .cls-7, .cls-8, .cls-9, .cls-10, .cls-11, .cls-12, .cls-13, .cls-14, .cls-15, .cls-16, .cls-17, .cls-18, .cls-19, .cls-20, .cls-21, .cls-22, .cls-23, .cls-24, .cls-25, .cls-26, .cls-27, .cls-28, .cls-29, .cls-30, .cls-31, .cls-32, .cls-33, .cls-34, .cls-35, .cls-36, .cls-37, .cls-38, .cls-39, .cls-40, .cls-41, .cls-42, .cls-43, .cls-44, .cls-45, .cls-46, .cls-47 {
        stroke-width: 0px;
      }

      .cls-2 {
        fill: url(#linear-gradient-17);
      }

      .cls-3 {
        fill: url(#linear-gradient);
      }

      .cls-4 {
        fill: url(#linear-gradient-21);
      }

      .cls-5 {
        fill: url(#linear-gradient-6);
      }

      .cls-6 {
        fill: #19110b;
      }

      .cls-7 {
        fill: url(#radial-gradient-8);
      }

      .cls-8 {
        fill: url(#linear-gradient-15);
      }

      .cls-9 {
        fill: url(#radial-gradient-13);
      }

      .cls-10 {
        fill: url(#radial-gradient-12);
      }

      .cls-11 {
        fill: url(#linear-gradient-11);
      }

      .cls-12 {
        fill: url(#linear-gradient-5);
      }

      .cls-13, .cls-48, .cls-49 {
        fill: none;
      }

      .cls-14 {
        fill: url(#linear-gradient-13);
      }

      .cls-15 {
        fill: url(#linear-gradient-23);
      }

      .cls-16 {
        fill: url(#linear-gradient-25);
      }

      .cls-17 {
        fill: url(#linear-gradient-16);
      }

      .cls-18 {
        fill: url(#linear-gradient-22);
      }

      .cls-19 {
        fill: #4c3e37;
      }

      .cls-20 {
        fill: url(#linear-gradient-20);
      }

      .cls-21 {
        fill: url(#linear-gradient-14);
      }

      .cls-22 {
        fill: url(#linear-gradient-2);
      }

      .cls-23 {
        fill: url(#linear-gradient-7);
      }

      .cls-24 {
        fill: url(#radial-gradient-2);
      }

      .cls-25 {
        fill: url(#radial-gradient-7);
      }

      .cls-26 {
        fill: url(#linear-gradient-3);
      }

      .cls-27 {
        fill: url(#radial-gradient-5);
      }

      .cls-28 {
        fill: #110e0d;
      }

      .cls-29 {
        fill: url(#linear-gradient-9);
      }

      .cls-30 {
        fill: url(#linear-gradient-27);
      }

      .cls-31 {
        fill: url(#radial-gradient);
      }

      .cls-32 {
        fill: url(#linear-gradient-19);
        opacity: .41;
      }

      .cls-33 {
        fill: url(#linear-gradient-8);
      }

      .cls-34 {
        fill: url(#radial-gradient-10);
      }

      .cls-35 {
        fill: url(#linear-gradient-24);
      }

      .cls-36 {
        fill: url(#linear-gradient-26);
      }

      .cls-37 {
        fill: url(#linear-gradient-18);
      }

      .cls-38 {
        fill: url(#linear-gradient-30);
      }

      .cls-48 {
        stroke-width: 3px;
      }

      .cls-48, .cls-49 {
        stroke: #19110b;
        stroke-miterlimit: 10;
      }

      .cls-39 {
        fill: url(#linear-gradient-29);
      }

      .cls-40 {
        fill: url(#radial-gradient-6);
      }

      .cls-41 {
        fill: url(#linear-gradient-28);
      }

      .cls-42 {
        fill: url(#linear-gradient-10);
      }

      .cls-43 {
        fill: url(#radial-gradient-9);
      }

      .cls-44 {
        fill: url(#radial-gradient-3);
      }

      .cls-45 {
        fill: url(#radial-gradient-11);
      }

      .cls-46 {
        fill: url(#linear-gradient-4);
      }

      .cls-47 {
        fill: url(#radial-gradient-4);
      }
    </style>
    <clipPath id="clippath">
      <rect class="cls-13" x="-2386" y="-1850.5" width="1920" height="1080"/>
    </clipPath>
    <linearGradient id="linear-gradient" x1="681.8" y1="1130.07" x2="681.8" y2="1006.9" gradientUnits="userSpaceOnUse">
      <stop offset="0" stop-color="#75543b"/>
      <stop offset=".56" stop-color="#583b29"/>
      <stop offset="1" stop-color="#472c1f"/>
    </linearGradient>
    <radialGradient id="radial-gradient" cx="929.48" cy="949.66" fx="929.48" fy="949.66" r="206.15" gradientUnits="userSpaceOnUse">
      <stop offset="0" stop-color="#9d9068"/>
      <stop offset=".46" stop-color="#8e815b"/>
      <stop offset="1" stop-color="#776b49"/>
    </radialGradient>
    <radialGradient id="radial-gradient-2" cx="940.27" cy="1003.34" fx="1001.07" fy="969.5" r="413.26" gradientTransform="translate(0 137.44) scale(1 .86)" gradientUnits="userSpaceOnUse">
      <stop offset="0" stop-color="#776b49" stop-opacity="0"/>
      <stop offset="1" stop-color="#332a1f"/>
    </radialGradient>
    <linearGradient id="linear-gradient-2" x1="1000.75" y1="946.34" x2="1000.75" y2="746.76" gradientUnits="userSpaceOnUse">
      <stop offset="0" stop-color="#776b49" stop-opacity="0"/>
      <stop offset="1" stop-color="#332a1f"/>
    </linearGradient>
    <linearGradient id="linear-gradient-3" x1="956.18" y1="1010.33" x2="1272.56" y2="895.52" xlink:href="#linear-gradient-2"/>
    <linearGradient id="linear-gradient-4" x1="979.51" y1="1006.12" x2="1031.24" y2="691.63" xlink:href="#linear-gradient-2"/>
    <linearGradient id="linear-gradient-5" x1="842.47" y1="1240.71" x2="758.93" y2="676.25" xlink:href="#linear-gradient-2"/>
    <radialGradient id="radial-gradient-3" cx="1313.28" cy="901.75" fx="1329.9" fy="863.29" r="205.63" gradientTransform="translate(0 -342.5) scale(1 1.38)" gradientUnits="userSpaceOnUse">
      <stop offset="0" stop-color="#bb9d76"/>
      <stop offset="1" stop-color="#7f5f4b"/>
    </radialGradient>
    <radialGradient id="radial-gradient-4" cx="665.18" cy="966.81" fx="711.14" fy="899.69" r="84.42" gradientUnits="userSpaceOnUse">
      <stop offset="0" stop-color="#bb9d76"/>
      <stop offset=".75" stop-color="#8f6f56"/>
      <stop offset="1" stop-color="#7f5f4b"/>
    </radialGradient>
    <radialGradient id="radial-gradient-5" cx="786.52" cy="762.91" fx="904.2" fy="770.2" r="324.32" gradientTransform="translate(-66.66 592.34) rotate(-14.01) scale(1 .49)" gradientUnits="userSpaceOnUse">
      <stop offset="0" stop-color="#bb9d76"/>
      <stop offset=".74" stop-color="#8f6f56"/>
      <stop offset="1" stop-color="#7f5f4b"/>
    </radialGradient>
    <linearGradient id="linear-gradient-6" x1="851.46" y1="828.45" x2="994.56" y2="684.31" gradientUnits="userSpaceOnUse">
      <stop offset="0" stop-color="#60412f"/>
      <stop offset=".23" stop-color="#674833" stop-opacity=".82"/>
      <stop offset=".7" stop-color="#7a5a3f" stop-opacity=".34"/>
      <stop offset="1" stop-color="#896848" stop-opacity="0"/>
    </linearGradient>
    <radialGradient id="radial-gradient-6" cx="947.51" cy="667.49" fx="1075.58" fy="567.26" r="417.4" gradientTransform="translate(0 376.02) scale(1 .44)" gradientUnits="userSpaceOnUse">
      <stop offset="0" stop-color="#bb9d76"/>
      <stop offset=".39" stop-color="#a68767"/>
      <stop offset="1" stop-color="#7f5f4b"/>
    </radialGradient>
    <linearGradient id="linear-gradient-7" x1="969.41" y1="629.64" x2="969.41" y2="419.39" xlink:href="#linear-gradient"/>
    <radialGradient id="radial-gradient-7" cx="759.6" cy="896.83" fx="759.6" fy="896.83" r="133.42" gradientUnits="userSpaceOnUse">
      <stop offset="0" stop-color="#ac8457"/>
      <stop offset=".62" stop-color="#a46c35"/>
      <stop offset=".84" stop-color="#8e572a"/>
      <stop offset="1" stop-color="#7d4921"/>
    </radialGradient>
    <radialGradient id="radial-gradient-8" cx="794.54" cy="839.73" fx="794.54" fy="839.73" r="164.51" xlink:href="#radial-gradient-7"/>
    <radialGradient id="radial-gradient-9" cx="619.03" cy="923.05" fx="637.5" fy="901.7" r="142.46" gradientTransform="translate(0 -365.76) scale(1 1.4)" gradientUnits="userSpaceOnUse">
      <stop offset="0" stop-color="#bb9d76"/>
      <stop offset=".64" stop-color="#917258"/>
      <stop offset="1" stop-color="#7f5f4b"/>
    </radialGradient>
    <linearGradient id="linear-gradient-8" x1="1034.47" y1="794.06" x2="1104.63" y2="553.45" xlink:href="#linear-gradient-6"/>
    <linearGradient id="linear-gradient-9" x1="1142.33" y1="644.67" x2="1031.65" y2="435.49" xlink:href="#linear-gradient-6"/>
    <linearGradient id="linear-gradient-10" x1="1270.15" y1="907.62" x2="1101.57" y2="603.18" xlink:href="#linear-gradient-6"/>
    <linearGradient id="linear-gradient-11" x1="611.57" y1="770.69" x2="677.89" y2="528.11" xlink:href="#linear-gradient-6"/>
    <linearGradient id="linear-gradient-12" x1="660.46" y1="878.54" x2="672.67" y2="1051.45" xlink:href="#linear-gradient-6"/>
    <linearGradient id="linear-gradient-13" x1="619.17" y1="744.99" x2="634.21" y2="957.95" xlink:href="#linear-gradient-6"/>
    <linearGradient id="linear-gradient-14" x1="1187.3" y1="926.06" x2="1345.66" y2="763.34" xlink:href="#linear-gradient-6"/>
    <linearGradient id="linear-gradient-15" x1="1079.19" y1="1158.9" x2="1237.29" y2="910.75" xlink:href="#linear-gradient-6"/>
    <linearGradient id="linear-gradient-16" x1="1320.33" y1="902.84" x2="1398.2" y2="780.62" xlink:href="#linear-gradient-6"/>
    <radialGradient id="radial-gradient-10" cx="974.57" cy="524.4" fx="974.57" fy="524.4" r="74.05" gradientUnits="userSpaceOnUse">
      <stop offset="0" stop-color="#ac8457"/>
      <stop offset=".59" stop-color="#a46c35"/>
      <stop offset=".84" stop-color="#8e572a"/>
      <stop offset="1" stop-color="#7d4921"/>
    </radialGradient>
    <linearGradient id="linear-gradient-17" x1="997.33" y1="605.38" x2="968.22" y2="484.41" gradientUnits="userSpaceOnUse">
      <stop offset="0" stop-color="#aa6a2b" stop-opacity="0"/>
      <stop offset=".02" stop-color="#a7682a" stop-opacity=".03"/>
      <stop offset=".47" stop-color="#7f4b1e" stop-opacity=".55"/>
      <stop offset=".81" stop-color="#673917" stop-opacity=".88"/>
      <stop offset="1" stop-color="#5e3315"/>
    </linearGradient>
    <linearGradient id="linear-gradient-18" x1="787.97" y1="348.69" x2="801.73" y2="619.97" gradientUnits="userSpaceOnUse">
      <stop offset="0" stop-color="#896848" stop-opacity="0"/>
      <stop offset=".3" stop-color="#7a5a3f" stop-opacity=".34"/>
      <stop offset=".77" stop-color="#674833" stop-opacity=".82"/>
      <stop offset="1" stop-color="#60412f"/>
    </linearGradient>
    <radialGradient id="radial-gradient-11" cx="957.14" cy="442.11" fx="957.14" fy="442.11" r="109.21" xlink:href="#radial-gradient-10"/>
    <linearGradient id="linear-gradient-19" x1="965.25" y1="470.56" x2="943.79" y2="381.39" xlink:href="#linear-gradient-17"/>
    <linearGradient id="linear-gradient-20" x1="960.34" y1="512.52" x2="955.04" y2="316.34" xlink:href="#linear-gradient-17"/>
    <radialGradient id="radial-gradient-12" cx="948.5" cy="331.42" fx="976.89" fy="158.24" r="379.06" gradientTransform="translate(14.27 18.65) rotate(2.82) scale(1 .8)" gradientUnits="userSpaceOnUse">
      <stop offset="0" stop-color="#bb9d76"/>
      <stop offset=".17" stop-color="#ae8f6c"/>
      <stop offset=".83" stop-color="#7f5f4b"/>
    </radialGradient>
    <linearGradient id="linear-gradient-21" x1="654.09" y1="432.75" x2="742.37" y2="204.47" xlink:href="#linear-gradient-6"/>
    <linearGradient id="linear-gradient-22" x1="1149.09" y1="476.84" x2="1229.88" y2="199.77" xlink:href="#linear-gradient-6"/>
    <linearGradient id="linear-gradient-23" x1="1119.41" y1="365.58" x2="1157.96" y2="630.13" xlink:href="#linear-gradient-18"/>
    <linearGradient id="linear-gradient-24" x1="1029.85" y1="668.33" x2="1047.04" y2="592.31" gradientUnits="userSpaceOnUse">
      <stop offset="0" stop-color="#565656"/>
      <stop offset=".89" stop-color="#ccc"/>
    </linearGradient>
    <linearGradient id="linear-gradient-25" x1="986.35" y1="708.68" x2="1056.81" y2="572.9" gradientUnits="userSpaceOnUse">
      <stop offset="0" stop-color="#565656"/>
      <stop offset="1" stop-color="#ccc"/>
    </linearGradient>
    <linearGradient id="linear-gradient-26" x1="1018.55" y1="656.33" x2="1062.69" y2="571.25" gradientUnits="userSpaceOnUse">
      <stop offset="0" stop-color="#565656"/>
      <stop offset=".04" stop-color="#5c5c5c"/>
      <stop offset=".35" stop-color="#8c8c8c"/>
      <stop offset=".63" stop-color="#afafaf"/>
      <stop offset=".85" stop-color="#c4c4c4"/>
      <stop offset="1" stop-color="#ccc"/>
    </linearGradient>
    <linearGradient id="linear-gradient-27" x1="944.79" y1="689.5" x2="1031.42" y2="607.62" gradientUnits="userSpaceOnUse">
      <stop offset="0" stop-color="#565656"/>
      <stop offset=".16" stop-color="#616161"/>
      <stop offset=".44" stop-color="#7f7f7f"/>
      <stop offset=".8" stop-color="#afafaf"/>
      <stop offset="1" stop-color="#ccc"/>
    </linearGradient>
    <linearGradient id="linear-gradient-28" x1="1206.57" y1="622.01" x2="1206.57" y2="621.97" xlink:href="#linear-gradient-26"/>
    <linearGradient id="linear-gradient-29" x1="716.24" y1="627.27" x2="716.24" y2="531.87" xlink:href="#linear-gradient-26"/>
    <linearGradient id="linear-gradient-30" x1="678.98" y1="603.25" x2="736.93" y2="566.77" gradientUnits="userSpaceOnUse">
      <stop offset="0" stop-color="#565656"/>
      <stop offset=".18" stop-color="#5a5a5a"/>
      <stop offset=".37" stop-color="#666"/>
      <stop offset=".55" stop-color="#7b7b7b"/>
      <stop offset=".74" stop-color="#989898"/>
      <stop offset=".93" stop-color="#bcbcbc"/>
      <stop offset="1" stop-color="#ccc"/>
    </linearGradient>
    <radialGradient id="radial-gradient-13" cx="808.63" cy="588.85" fx="808.63" fy="588.85" r="76.75" gradientUnits="userSpaceOnUse">
      <stop offset="0" stop-color="#7c5f53"/>
      <stop offset=".58" stop-color="#5d443d"/>
      <stop offset="1" stop-color="#442f2b"/>
    </radialGradient>
  </defs>
  <g id="assassin_lost_color">
    <g id="Layer_73" data-name="Layer 73">
      <path class="cls-3" d="m688,972.05c-2.38,15.53-7.02,35.14-16.36,56.45-5.42,12.36-11.41,23-17.18,31.91-6.4,11.6-12.79,23.2-19.19,34.8,5.5-.7,32.53-4.08,55.19-3.71,7.6.12,15.26.59,15.26.59,8.94.55,16.61,1.38,22.62,2.15-2.18-6.56-5.6-17.22-9.23-30.57-6.9-25.33-7.65-34.9-13.09-51.55-3.1-9.49-8.49-23.58-18-40.09Z"/>
      <path class="cls-31" d="m1172.58,1099.24c-77.81,8.75-167.13,13.71-265.72,10.26-68.33-2.39-131.57-8.48-189-16.57-1.42-4.2-3.68-10.64-6.75-18.41-4.65-11.76-7.91-18.32-12.27-28.23-3.15-7.17-7.59-17.68-12.46-30.94,1.46-7.71,2.67-16.47,3.26-26.13.7-11.55.37-21.97-.42-30.97,11.73,18.78,22.98,31.89,30.69,40.79,8.4,9.69,15.43,17.72,24.05,25.08,10.42,13.07,15.94,17.18,22.99,20.32,4.72,2.1,18.64,8.31,33.14,3.69,12.6-4.02,17.71-13.69,29.46-30.69,29.05-42.01,35.02-36.62,47.86-62.59,3.06-6.19,12.41-26.08,15.95-52.77,4.27-32.15-4-43.15-14.72-105.54-.24-1.38-.69-4.05-1.3-7.83,22.86,17.39,34.08,32.89,68.8,40.96,32.3,7.51,60.02,2.8,72.41,0,.66-.15,1.32-.3,1.97-.46.6-.14,1.19-.29,1.78-.44,1.59-.4,3.15-.82,4.67-1.27.61-.17,1.22-.35,1.83-.53.14-.04.28-.08.41-.12.58-.18,1.16-.36,1.73-.54,5.62-1.79,10.79-3.81,15.53-5.92,9.07,1.68,19.26,2.38,30.17,1.1,10.22-1.2,21.93-4.22,48.65-19.88,5.95,11.07,11.89,22.33,11.89,22.33l5.73,14.73c3.66,40.41,7.19,73.73,9.82,97.37,1.61,14.51,4,35.32,11.45,95.72,3.22,26.11,6.08,48.97,8.4,67.47Z"/>
      <path class="cls-24" d="m721,1101.59c13.27,2.64,26.55,5.27,39.82,7.91-5.06-13.04-9.88-31.32-1.23-42.95,13.09-17.61,46.92,1.32,101.86-3.68,73.45-6.69,110.18-10.03,131.32-9.82,58.05.59,67.69,9.4,128.86,9.82,40.03.28,72.58-3.25,93.27-6.14,2.45-46.64,4.91-93.27,7.36-139.91-37.87,17.51-71.16,31.8-98.18,42.95-77.36,31.94-101.06,37.29-110.45,39.27-20.89,4.4-57.06,11.73-104.32,7.36-43.24-4-77.38-16.09-99.41-25.77-38.86-27.82-77.73-55.64-116.59-83.45-11.68,18.86-23.36,37.73-35.05,56.59,15.96,33.81,31.6,69.35,46.64,106.64,5.59,13.86,10.95,27.59,16.09,41.18Z"/>
      <path class="cls-22" d="m813.59,752.36c38.63,19.72,72.95,29.33,96.95,34.36,85.64,17.96,156.77,2.22,192.68-8.59,31.87-9.59,56.89-21.6,73.64-30.68-1.76,37.55-1.17,79.6,3.68,125.18,1.96,18.41,4.47,36.02,7.36,52.77-21.71,3.54-54.58,9.19-94.5,17.18-86,17.23-108.45,26.11-147.27,27-31.17.72-76.08-3.64-131.32-28.23-.41-63-.82-126-1.23-189Z"/>
      <path class="cls-26" d="m1063.55,786.32c20.18,25.09,40.36,50.18,60.55,75.27,2.97,40.01,7.22,82.09,13.09,126,6.49,48.53,14.3,94.41,22.91,137.45,14.18-3.27,28.36-6.55,42.55-9.82-13.96-60.95-17.46-110.88-18-145.64-.98-62.61,7.1-108.16-16.36-165.27-9.97-24.27-22.28-42.46-31.09-54-24.55,12-49.09,24-73.64,36Z"/>
      <path class="cls-46" d="m861.45,797.77c9.04,13.2,25.67,33.22,52.77,47.86,10.43,5.64,50.77,26.64,100.64,14.73,25.2-6.02,43.08-18.12,52.77-25.77,10.47,2.14,29.82,4.63,52.77-1.23,28.15-7.18,46.2-22.95,54-30.68-21.68-14.73-43.36-29.45-65.05-44.18-22.35,5.83-47.84,10.79-76.09,13.5-71.06,6.82-131.38-3.32-174.27-14.73.82,13.5,1.64,27,2.45,40.5Z"/>
      <path class="cls-12" d="m683.49,962.23c20.77,25.17,35.43,43.19,44.19,54,12.77,15.75,21.15,26.23,36.82,34.36,7.4,3.84,20.78,10.55,36.82,7.36,10.21-2.03,17.17-7.21,20.6-9.82,9.13-6.95,8.3-10.18,25.47-33.75,21.17-29.05,24.73-22.92,34.88-40.5,14.93-25.86,15.98-54.3,16.61-71.18.49-13.18-.52-20.1-2.21-39.27-1.78-20.21-3.91-49.44-4.98-85.91-16.6-8.22-57.09-24.97-101.32-9.82-63.51,21.75-109,100.45-106.86,194.52Z"/>
      <path class="cls-44" d="m1488.18,1102.95c-15.9,1.7-35.44,3.69-57.82,5.73-11.2,1.03-46.71,4.22-88.91,7.09-34.33,2.34-66.92,4.03-96.37,5.28-25.91,1.09-49.37,1.85-69.44,2.36-.55-4.31-1.15-9.09-1.81-14.31-.4-3.13-.81-6.42-1.25-9.86-2.32-18.5-5.18-41.36-8.4-67.47-7.45-60.4-9.84-81.21-11.45-95.72-.33-2.95-.67-6.06-1.02-9.31-.09-.82-.18-1.64-.27-2.47-.12-1.06-.23-2.13-.35-3.22-.19-1.73-.37-3.45-.56-5.15-.16-1.56-.33-3.15-.5-4.76-.15-1.39-.3-2.77-.44-4.14-.15-1.44-.3-2.9-.45-4.38-.15-1.4-.29-2.77-.43-4.14-.21-1.99-.42-4.02-.62-6.08-.06-.62-.12-1.23-.19-1.84-1.59-15.55-3.27-32.94-4.99-51.88l-5.73-14.73s-5.94-11.26-11.89-22.33c2.47-1.44,5.06-3,7.8-4.67,40.58-24.78,40.57-31.72,80.18-58.09,47.49-31.6,76.2-40.71,94.09-45,7.79-1.86,14.76-3.1,20.49-3.95,5.15,11.47,11.25,25.23,17.97,40.77,24.82,57.37,32.32,79.28,35.98,93.14.42,1.59.95,3.7,1.65,6.68,7.02,29.96,8.17,54.33,7.98,70.57,4.09,7.48,8.44,15.13,13.09,22.91,6.33,10.6,12.7,20.62,19.03,30.07,8.13,13.46,16.22,28.04,24.03,43.74,18.73,37.67,31.61,73.43,40.6,105.16Z"/>
      <path class="cls-47" d="m689.64,989.23c-1.32,19.36-4.95,35.44-7.25,44.61-.35,1.38-.67,2.61-.94,3.66-4.69,18.05-10.59,33.5-16.3,46.07-5.91-22.15-12.42-50.79-17.24-84.52-6.77-47.38-11.33-81.27-3.68-124.57,1.38-7.82,2.86-16,4.85-24.43,1.4,9.65,3.41,19.81,6.19,30.36,2.5,9.48,9.76,34.9,26.18,64.64,2.59,4.69,5.19,9.09,7.77,13.21.92,8.75,1.25,18.71.42,30.97Z"/>
      <path class="cls-27" d="m1046.47,820.4c-4.74,2.11-9.91,4.13-15.53,5.92-.57.18-1.15.36-1.73.54-.13.04-.27.08-.41.12-.61.18-1.22.36-1.83.53-1.52.45-3.08.87-4.67,1.27-.59.15-1.18.3-1.78.44-.65.16-1.31.31-1.97.46-12.39,2.8-40.11,7.51-72.41,0-47.93-11.14-51.08-36.44-101.87-61.36-2.57-1.26-5.57-2.74-8.96-4.32-22.5-10.53-62.09-26.03-106.4-17.77-3.86.72-7.59,1.59-11.21,2.6-28.54,7.94-50.32,24.65-73,45.67-1.67,1.54-3.34,3.11-5.02,4.71-4.93,4.66-9.94,9.52-15.09,14.52-39.57,38.41-59.2,75.66-63.82,84.68-2.47,4.82-4.74,9.57-6.82,14.24-6.28-15.45-10.84-28.71-14.04-38.79-10.53-33.1-15.73-50.05-12.27-69.54,2.28-12.88,7.25-21.68,17.18-39.27.91-1.61,1.83-3.2,2.75-4.75,15.73-26.67,31.97-44.39,37.34-50.07,32.48-34.43,65.84-51.9,85.91-62.18,23.15-11.87,53.48-27.08,96.54-32.73,2.18-.29,4.35-.54,6.48-.76,11.71-1.24,22.71-1.57,32.82-1.32.88.17,1.74.36,2.59.55,17.91,3.97,29.99,10.91,37.48,16.26,15.1,10.77,27.56,26.45,38.18,39.81,1.94,2.44,6.53,8.32,13.36,16.09,6.03,6.85,8.09,8.69,12.28,13.37,2.01,2.25,3.69,4.23,5.18,6.08,1.42,1.77,2.67,3.42,3.86,5.06.35.48.7.96,1.04,1.44.34.48.69.96,1.03,1.44.69.97,1.38,1.96,2.1,2.99.36.51.73,1.04,1.11,1.57,1.52,2.14,3.21,4.49,5.25,7.21.02.03.05.06.07.09,2.87,3.82,3.78,4.82,16.26,19.31.62.71,1.26,1.46,1.93,2.24.96,1.12,1.98,2.31,3.07,3.57,26.56,30.87,40.17,46.49,56.46,55.63.61.35,1.31.73,2.09,1.16.31.17.64.35.98.53.21.12.42.23.64.35.31.16.63.33.96.5,2.25,1.17,4.94,2.5,8.02,3.86.52.22,1.04.45,1.58.68,2.54,1.07,5.31,2.15,8.3,3.16.41.15.83.29,1.26.42,3.01.99,6.22,1.92,9.62,2.71.55.13,1.11.26,1.67.38.21.04.37.08.4.09.06.02.14.03.22.04.36.09.89.2,1.68.35.11.02.23.05.35.07.24.05.5.1.79.15Z"/>
      <path class="cls-5" d="m853.48,637c31.95,26.85,55.26,51.07,70.57,68.11,27.28,30.37,37.66,47.46,63.82,69.34,24.94,20.86,48.97,33.33,65.05,40.5-10.01,2.82-25.49,5.89-44.18,4.3-6.14-.52-36.93-3.62-66.89-26.39-23.38-17.77-23.82-30.48-56.45-68.73-14.4-16.88-27.27-29.58-35.59-37.43,1.23-16.57,2.45-33.14,3.68-49.7Z"/>
      <path class="cls-40" d="m1347.45,672.59c-.18,6.46-3.37,11.63-4.9,14.11-3.55,5.74-7.93,9.22-10.64,11.05-.87-.77-2.16-1.77-3.89-2.66-2.44-1.26-4.77-1.78-6.95-2.04-7.26-.88-13.71.81-13.71.81-44.74,11.75-94.09,45-94.09,45-39.61,26.37-39.6,33.31-80.18,58.09-2.74,1.67-5.33,3.23-7.8,4.67-26.72,15.66-38.43,18.68-48.65,19.88-10.91,1.28-21.1.58-30.17-1.1-.29-.05-.55-.1-.79-.15-.69-.14-1.36-.27-2.03-.42-.08-.01-.16-.02-.22-.04-.03-.01-.19-.05-.4-.09-.56-.12-1.12-.25-1.67-.38-3.4-.79-6.61-1.72-9.62-2.71-.43-.13-.85-.27-1.26-.42-2.99-1.01-5.76-2.09-8.3-3.16-.54-.23-1.06-.46-1.58-.68-3.08-1.36-5.77-2.69-8.02-3.86-.33-.17-.65-.34-.96-.5-.22-.12-.43-.23-.64-.35-.34-.18-.67-.36-.98-.53-.78-.43-1.48-.81-2.09-1.16-16.29-9.14-29.9-24.76-56.46-55.63-1.09-1.26-2.11-2.45-3.07-3.57-7.66-8.95-13.54-15.95-18.19-21.55-.02-.03-.05-.06-.07-.09-6.35-8.45-9.23-13.28-14.39-19.71-1.49-1.85-3.17-3.83-5.18-6.08-4.19-4.68-6.25-6.52-12.28-13.37-6.83-7.77-11.42-13.65-13.36-16.09-10.62-13.36-23.08-29.04-38.18-39.81-7.49-5.35-19.57-12.29-37.48-16.26-.85-.2-1.71-.38-2.59-.55-10.11-.25-21.11.08-32.82,1.32-2.13.22-4.3.47-6.48.76-43.06,5.65-73.39,20.86-96.54,32.73-20.07,10.28-53.43,27.75-85.91,62.18-5.37,5.68-21.61,23.4-37.34,50.07,2.48-9.47,4.95-17.48,7.07-23.89,5.84-17.64,8.39-21.11,22.09-56.46,15.98-41.23,13.94-40.18,18.82-48.27,11.8-19.58,26.57-29.95,55.63-49.91,16.6-11.4,40.18-26.21,70.37-40.91,44.51-5.33,67.01-1.07,78.66,5,2.65.12,6.9.85,16.45,1.55,13.1.96,23.83.97,30.89.82,138.29-34.64,249.82-41.86,306.81-30.28,9.57,1.95,18.57,4.36,26.71,6.9,8.6,2.68,16.24,5.49,22.56,8.04,12.16,4.9,19.46,8.79,19.46,8.79,21.28,11.35,36.28,24.75,66.27,51.55,4.49,4.01,20.18,23.4,51.55,62.18,2.28,2.81,6.77,9.1,6.54,17.18Z"/>
      <path class="cls-23" d="m979.27,570.73c-6.65-6.42-16.98-15.05-31.3-22.09-7.79-3.83-21-9.29-46.74-12.48-28.38-3.52-34.23.41-84.38-.72-21.22-.48-35.22-1.52-49.91-10.12-6.96-4.08-19.43-11.4-20.86-22.7-1.58-12.45,11.23-22.66,36.82-43.57,60.31-49.29,52.53-44.4,59.52-49.09,41.09-27.55,67.17-45.04,102.48-49.09,24.93-2.86,58.75,10.57,126.41,37.43,21.86,8.68,46.48,23.99,95.73,54.61,12,7.46,26.8,16.92,25.77,27.61-1.11,11.49-19.96,18.73-35.59,24.55-21.2,7.89-32.28,7.81-57.07,12.27-24.99,4.5-51.42,9.27-77.93,22.7-19.84,10.06-34.07,22.1-42.95,30.68Z"/>
      <path class="cls-25" d="m845.91,988.41c-17.6,30.99-40.57,50.52-55.64,61.36-8.35-2.72-20.09-7.39-32.72-15.54-15.89-10.26-25.27-20.91-37.64-35.18-7.71-8.9-18.96-22.01-30.69-40.79-2.58-4.12-5.18-8.52-7.77-13.21-16.42-29.74-23.68-55.16-26.18-64.64-2.78-10.55-4.79-20.71-6.19-30.36,3.82-16.25,9.53-33.43,20.09-50.7,2.95-4.82,6.27-9.65,10.03-14.46,12.95-16.56,27.45-28.3,40.22-36.52.04-.02.09-.03.13-.03.73-.2,1.46-.38,2.2-.56.66-.17,1.33-.33,2-.48.45-.1.9-.21,1.36-.3,1.25-.28,2.52-.53,3.8-.77,44.31-8.26,83.9,7.24,106.4,17.77,6.94,13.13,12.26,26.89,17.14,39.5,6.37,16.44,39.9,103.11-6.54,184.91Z"/>
      <path class="cls-7" d="m893.36,902.09c-3.54,26.69-12.89,46.58-15.95,52.77-12.84,25.97-18.81,20.58-47.86,62.59-11.75,17-16.86,26.67-29.46,30.69-14.5,4.62-28.42-1.59-33.14-3.69-7.05-3.14-12.57-7.25-22.99-20.32-4.12-5.16-9-11.73-15.05-20.18-19.37-27.09-29.12-40.85-31.91-51.54-4.26-16.3-2.6-30.73,2.45-52.77,10.1-44.05,19.89-58.07,34.37-100.64,20.81-61.2,24.87-103.69,25.77-114.14,1.76-20.44,1.65-37.47,1.23-49.09,34.77-2.04,69.54-4.09,104.32-6.13-.25,18.05-.04,44.86,2.45,77.31,2.74,35.68,7.38,67.06,9.75,81.77.61,3.78,1.06,6.45,1.3,7.83,10.72,62.39,18.99,73.39,14.72,105.54Z"/>
      <path class="cls-43" d="m719.42,748.37c-12.77,8.22-27.27,19.96-40.22,36.52-3.76,4.81-7.08,9.64-10.03,14.46-10.56,17.27-16.27,34.45-20.09,50.7-1.99,8.43-3.47,16.61-4.85,24.43-7.65,43.3-3.09,77.19,3.68,124.57,4.82,33.73,11.33,62.37,17.24,84.52.81,3.04,1.62,5.96,2.4,8.75-23.41,3.87-52.56,6.58-85.91,4.91-23.74-1.19-44.91-4.36-63-8.18.8-21.51,3.18-51.83,10.22-87.55,6.79-34.42,12.91-65.96,31.91-103.09,4.62-9.02,24.25-46.27,63.82-84.68,6.9-6.7,13.54-13.15,20.11-19.23,1.43-1.33,2.87-2.65,4.29-3.94.69-.62,1.38-1.24,2.07-1.85,1.41-1.27,2.83-2.51,4.24-3.73.57-.5,1.14-.99,1.71-1.47.2-.18.39-.35.59-.51.65-.55,1.29-1.09,1.94-1.63.7-.59,1.41-1.17,2.11-1.75.82-.67,1.63-1.33,2.45-1.98.78-.63,1.58-1.25,2.37-1.87.76-.59,1.52-1.17,2.28-1.75.5-.37.99-.74,1.49-1.11,3.08-2.29,6.19-4.48,9.36-6.54.54-.36,1.08-.71,1.63-1.05,1.34-.85,2.7-1.69,4.06-2.49,1.56-.93,3.13-1.83,4.72-2.7.36-.19.72-.39,1.09-.59,1.16-.61,2.33-1.22,3.52-1.81.52-.26,1.04-.51,1.56-.76.52-.26,1.04-.5,1.57-.75.57-.27,1.15-.53,1.73-.79.48-.22.96-.43,1.45-.64,1.06-.47,2.14-.92,3.23-1.35.44-.18.89-.36,1.34-.54,2.15-.84,4.34-1.63,6.57-2.36.7-.23,1.41-.45,2.12-.67.57-.18,1.15-.35,1.73-.52,1.06-.32,2.13-.62,3.22-.9.09-.03.19-.06.28-.08Z"/>
      <path class="cls-33" d="m940,643.95c7.03,2.75,17.2,7.23,28.64,14.18,7.03,4.27,8.6,5.87,23.73,16.91,28.6,20.86,36.15,24.76,46.09,25.91,6.96.81,12.64-.02,16.09-.55,9.24-1.41,16.14-4.39,31.91-12.82,13.43-7.18,20.14-10.76,28.64-16.09,20.75-13.02,20.96-16.05,35.18-23.45,15.06-7.84,27.53-11.07,31.36-12,15.5-3.78,28.9-4.04,38.18-3.55-8.32-1.78-20.71-3.77-35.73-3.55-17.58.26-29.46,3.4-44.45,6.82-34.23,7.8-51.35,11.69-70.09,12.82-26.92,1.61-31.49-3.6-71.45-5.45-24.6-1.14-44.79-.18-58.09.82Z"/>
      <path class="cls-29" d="m1203.63,532.89c-6.88,3.52-15.47,7.5-25.54,11.25-7.71,2.86-19.81,6.9-51.54,13.09-44.06,8.59-50.73,6.65-69.55,13.91-17.31,6.67-30.02,15.38-37.64,21.27-9.81-2.73-19.63-5.46-29.45-8.18,3.4-3.61,8.72-8.76,15.95-13.91,16.82-11.97,32.93-16.08,59.32-21.27,39.73-7.82,48.84-7.5,74.46-13.1,16.76-3.66,30.86-7.73,41.43-11.1,8.6,2.68,16.24,5.49,22.56,8.04Z"/>
      <path class="cls-42" d="m1346.43,664.41c-4.64-8.26-21.9-7.08-37.43-4.91-41.56,5.81-66.65,9.31-94.91,28.64-10.96,7.5-29.4,28.18-66.27,69.55-20.13,22.59-26.31,30.52-40.91,39.27-9.03,5.41-32.67,19.13-64.64,16.57-19.61-1.57-34.41-8.64-42.55-13.3,9.51,6.83,23.83,15.07,42.55,19.36,9.94,2.28,23.67,5.43,39.82,1.36,5.44-1.37,10.11-3.29,18-6.55,1.44-.59,13.3-5.52,25.09-12,16.11-8.86,27.9-18.34,50.18-35.18,24.87-18.8,37.56-28.36,49.91-36,13.2-8.17,22.19-12.69,39.27-21.27,7.3-3.67,16.41-7.08,34.64-13.91,6.72-2.52,14.88-5.45,24-2.73,3.88,1.16,6.81,3,8.73,4.43,2.96-2.01,9.34-6.95,12.89-15.75,1.31-3.24,4.81-11.94,1.64-17.59Z"/>
      <path class="cls-11" d="m717.56,627.18c-12.08,4.42-27.49,10.72-44.8,19.53-9.24,4.7-23.09,11.82-39.78,23.22-8.9,6.08-25.6,17.61-43.98,36.2-11.75,11.89-26.89,29.42-41.01,53.28,3.01-12.17,6.2-21.77,8.49-28.12,4.96-13.78,8.66-20.61,16.16-39.89,3.19-8.19,5.61-14.9,7.09-19.09,21.81-14.72,41.58-24.32,56.45-30.55,40.38-16.9,62.35-16.32,70.33-15.82,4.65.29,8.47.82,11.05,1.23Z"/>
      <path class="cls-1" d="m649.08,850.05c-2.36,9.09-5.15,21.8-6.9,37.18-.66,5.82-2.57,24.3-.55,56.73,1.2,19.14,3.86,44.67,10.09,74.73-1.85-14.21-2.74-31.51-.82-51,.88-8.86,2.22-17.07,3.82-24.55,1.69,7.88,4.55,17.6,9.55,28.09,7.48,15.7,16.83,27.02,24,34.36.75-6.02,1.33-12.49,1.64-19.36.43-9.66.25-18.61-.27-26.73-6.65-10.6-13.44-22.95-19.64-37.09-11.92-27.19-17.87-52.3-20.92-72.36Z"/>
      <path class="cls-14" d="m719.42,748.37c-7.9,2.07-19.72,5.87-32.78,13.13-3.81,2.12-13.81,7.91-39,30.55-12.85,11.55-22.26,20.01-34.09,32.73-7.14,7.68-24.03,25.99-39,49.09-12.03,18.56-29.27,50.19-39.55,95.45,16.05-31.84,32.18-56.34,44.45-73.36,23.16-32.12,24.46-26.36,74.73-86.73,7.08-8.5,19.64-23.73,39.55-40.91,10.27-8.87,19.35-15.54,25.69-19.95Z"/>
      <path class="cls-21" d="m1221.86,718.2c8.66,19.98,22.64,51,41.73,88.16,35.73,69.54,76.03,134.62,77.93,133.57.37-.2-.85-3.14-3.27-9-5.97-14.42-11.98-24.71-12.48-25.57-12.13-20.84-14.72-49.96-33.95-92.86-7.03-15.69-13.35-26.66-22.5-42.55-13.51-23.47-26.45-42.66-36.82-57.07-3.55,1.77-7.09,3.55-10.64,5.32Z"/>
      <path class="cls-8" d="m1245.08,1121.05c-25.91,1.09-49.37,1.85-69.44,2.36-.55-4.31-1.15-9.09-1.81-14.31-4.3-37.16-8.08-67.98-11.01-91.24-4.04-32.01-7.24-56.1-11.11-91.12-.09-.82-.18-1.64-.27-2.47-.12-1.06-.23-2.13-.35-3.22-.19-1.73-.37-3.45-.56-5.15-.17-1.6-.34-3.19-.5-4.76-.15-1.39-.3-2.77-.44-4.14-.15-1.44-.3-2.9-.45-4.38-.15-1.4-.29-2.77-.43-4.14-.21-2.06-.42-4.08-.62-6.08-.06-.62-.12-1.23-.19-1.84-2.21-22.15-3.84-40.62-4.99-54.2,11.9,24.36,26.97,56.83,42.82,95.87,11.13,27.43,23.72,58.64,36.54,100.36,7.2,23.42,15.41,53.21,22.81,88.46Z"/>
      <path class="cls-17" d="m1351.82,744.05c-1.42,6.26-3,15.27-3.27,26.18-.56,22.45,4.75,39.36,10.91,58.36,5.73,17.69,11.95,30.93,18.68,45.27,5.16,10.98,9.87,20.04,13.4,26.59.48-30.35-3.8-54.43-7.94-71.05-4.37-17.52-10.1-32.73-14.73-45-6.22-16.52-12.28-30.21-17.05-40.36Z"/>
    </g>
    <g id="Layer_74" data-name="Layer 74">
      <path class="cls-34" d="m1059.45,551.23c-3.23,3.78-7.24,8.14-11.92,12.53-43.89,10.93-47.02,16.33-72.37,21.97-10.07-3.23-22.27-8.96-40.07-17.32-16.32-7.67-29.52-14.89-38.73-20.18,0-.42.01-.84,0-1.27.03-3.92-.04-8.02-.2-12.27-.42-10.82-1.5-22.66-3.61-35.28-.85-5.08-1.81-9.97-2.86-14.66,5.44,4.18,9.38,5.52,22.7,17.86,8.77,8.14,20.67,20.17,38.04,32.53,3.81,2.7,8.75,6.05,15.96,7.36,10.87,1.98,19.93-1.96,23.31-3.68,8.88-4.5,13.13-11.1,19.03-19.64,10.13-14.68,21.56-28.42,31.91-42.95,3.78-5.31,6.85-9.6,9.36-13.16-.01,11.27.44,23.33,1.55,36.08.08.99.18,1.99.27,2.99.82,8.77,1.89,17.14,3.14,25.1,1.33,8.47,2.86,16.48,4.49,23.99Z"/>
      <path class="cls-2" d="m1051.55,499.15c-7.03,6.52-13.31,12.28-18.69,17.17-24.93,22.69-31.28,27.61-38.86,32.32-14.99,9.31-29.17,14.32-39.68,17.18-11.93-5.32-26.17-10.71-42.55-15.14-5.3-1.43-10.44-2.66-15.41-3.72.03-3.92-.04-8.02-.2-12.27-.42-10.82-1.5-22.66-3.61-35.28-.85-5.08-1.81-9.97-2.86-14.66,5.44,4.18,9.38,5.52,22.7,17.86,8.77,8.14,20.67,20.17,38.04,32.53,3.81,2.7,8.75,6.05,15.96,7.36,10.87,1.98,19.93-1.96,23.31-3.68,8.88-4.5,13.13-11.1,19.03-19.64,10.13-14.68,21.56-28.42,31.91-42.95,3.78-5.31,6.85-9.6,9.36-13.16-.01,11.27.44,23.33,1.55,36.08Z"/>
      <path class="cls-37" d="m971.5,579.05c2.59-2.77,5.18-5.55,7.77-8.32-8.9-8.48-23.66-20.32-44.59-27.82-16.1-5.77-28.94-6.51-48.68-7.64-29.93-1.71-66.82.42-71.18.68-12.07.72-21.74,1.6-33.95-2.45-16.08-5.33-24.49-14.73-27.14-18-3.24-4.01-5.98-7.39-6.82-12.27-2.73-15.81,17.49-29.31,18.55-30-6.73,2.42-16.43,6.6-26.73,13.91-9.64,6.84-11.89,10.8-18,15-16.62,11.42-37.78,8.09-46.77,6.68-35.42-5.56-55.59-33.69-59.86-39.95,0,4.32.51,10.78,3.14,18,3.5,9.61,8.9,15.45,15.82,22.77,9.62,10.18,18.28,16.21,29.45,24,10.58,7.37,18.34,11.65,22.09,13.64,5.22,2.77,9.77,4.89,13.23,6.41,64.82,11.59,129.64,23.18,194.45,34.77,26.41-3.14,52.82-6.27,79.23-9.41Z"/>
      <path class="cls-45" d="m1073.16,410.57c-.29,2.1-1.08,7.44-3.42,14.99-1.35,4.36-3.22,9.46-5.79,15.08-3.04,6.65-5.37,10.32-13.95,22.43-2.51,3.56-5.58,7.85-9.36,13.16-10.35,14.53-21.78,28.27-31.91,42.95-5.9,8.54-10.15,15.14-19.03,19.64-3.38,1.72-12.44,5.66-23.31,3.68-7.21-1.31-12.15-4.66-15.96-7.36-17.37-12.36-29.27-24.39-38.04-32.53-13.32-12.34-17.26-13.68-22.7-17.86-2.18-1.67-4.61-3.81-7.99-7.3-16.23-16.79-24.26-33.77-28.22-42.34-.2-.44-.41-.88-.6-1.32-6.87-15.19-10.63-29.64-12.65-42.09,7.29-6.64,16.17-13.71,26.75-20.4,10.18-6.45,47.67-28.81,99.41-30.07,27.78-.68,52.29,4.9,72.69,12.69,18.55,11.58,30.24,23.26,33.47,26.58,1.24,7.05,2.31,17.56.61,30.07Z"/>
      <path class="cls-32" d="m940.41,351.86c3.08,4.74,6.63,11.32,9,19.64,5.1,17.91,1.23,36.82,1.23,36.82-.66,5.48-4.37,12.85-1.84,22.5,1.27,4.84,6.55,6.82,8.39,7.77,4,2.09,11.36-1.53,17.28-7.57-4.6,3.78-10.21,11.89-15.24,12.48-3.06.36-5.78-.4-9-2.86-3.51-2.68-9.74-5.52-13.19-10.12-1.52-2.03.95-9.05,2.45-17.39,3.23-17.89,4.22-18.33,4.19-28.53-.02-7.87-2.03-13.73-2.86-15.95-2.18-5.77-5.15-10-7.36-12.68,2.32-1.36,4.64-2.73,6.95-4.09Z"/>
      <path class="cls-20" d="m1073.16,410.57c-.29,2.1-1.08,7.44-3.42,14.99-6.23-1.41-14.17-3.07-23.43-4.65-3.09-.53-15.13-2.54-31.45-4.21-9.24-.94-17.69-1.91-30.41-2.39-2.57-.1-5.9-2.07-8.18-3.27-7.62-4.02-15.29-9.43-22.09-8.45-7.8.08-15.67,6.98-21.33,9.71-2.56,1.23-5.09,2.49-7.93,2.5-7.79.03-16.8.67-26.66,2.51-19.56,3.65-34.92,10.62-45.39,16.47-6.87-15.19-10.63-29.64-12.65-42.09,7.29-6.64,16.17-13.71,26.75-20.4,10.18-6.45,47.67-28.81,99.41-30.07,27.78-.68,52.29,4.9,72.69,12.69,18.55,11.58,30.24,23.26,33.47,26.58,1.24,7.05,2.31,17.56.61,30.07Z"/>
      <path class="cls-10" d="m1278.73,405.05c-2.89-4.59-5.73-9.02-8.51-13.28-24.22-37.14-43.9-61.9-52.86-73.86-40.56-54.15-23.57-62.29-61.36-120.27-5.05-7.75-10.19-15.02-15.44-21.91h0c-33.75-44.35-71.65-72.53-114.65-104.5-58.09-43.2-78.02-44.37-87.14-44.18-2.46.05-5,.21-7.76.67-42.87,7.06-89.19,59.46-89.19,59.46-86.57,98.76-93.06,99.45-104.15,115.93-1.53,2.27-3.15,4.85-5.08,8.03-33.57,55.29-17.08,55.26-57.68,135-14.86,29.2-28.37,51.38-38.85,69.4-18.01,30.96-27.09,49.65-18.83,70.51,9.69,24.48,40.35,44.59,52.77,52.77,8.38,5.51,20.27,12.35,39.27,19.63,37.49,14.37,69.22,16.59,105.55,20.87,81.04,9.55,121.56,14.33,155.86,7.36,1.57-.32,3.06-.64,4.48-.95,25.35-5.64,28.48-11.04,72.37-21.97,2.11-.53,4.31-1.07,6.61-1.62,46.21-11.08,47.54-7.08,89.59-17.19,2.69-.64,53.13-13.08,114.13-42.95,29.57-14.48,39.09-21.63,42.96-33.14,5.5-16.37-2.93-33.39-22.09-63.81Zm-85.91,75.47c-1.11,11.49-19.97,18.73-35.59,24.55-21.2,7.88-32.28,7.8-57.07,12.27-14.66,2.64-29.82,5.37-45.2,9.9-10.83,3.18-21.78,7.26-32.73,12.81-19.84,10.05-34.07,22.1-42.96,30.68-6.66-6.33-17.02-14.9-31.29-22.09-4.89-2.47-20.29-9.74-50.32-13.09-.52-.06-10.1-.51-10.64-.52-33.85-.3-24.55.41-72.82.72-18.68.12-32.77-1.85-47.25-10.43-7.15-4.25-19.44-11.53-20.86-22.71-1.58-12.45,11.23-22.65,36.82-43.56,60.31-49.3,52.53-44.4,59.52-49.1.51-.34,1.02-.68,1.53-1.02,40.22-26.96,66.09-44.07,100.95-48.07,24.93-2.86,58.75,10.57,126.41,37.44.89.36,1.79.72,2.7,1.1,21.21,8.85,45.8,24.13,93.03,53.51,11.99,7.46,26.8,16.92,25.77,27.61Z"/>
      <path class="cls-4" d="m732.18,294.59c-7.33,20.15-18.53,28.67-39.27,50.73-14.59,15.51-34.83,38.71-56.85,70.22,10.48-18.02,23.99-40.2,38.85-69.4,40.6-79.74,24.11-79.71,57.68-135,1.93-3.18,3.55-5.76,5.08-8.03.2,8.69.68,16.67,1.3,23.9.45,5.23.87,8.87.98,9.9,1.45,13.57-1.03,39.17-7.77,57.68Z"/>
      <path class="cls-18" d="m1270.22,391.77c-25.74-24.72-48.79-42.5-65.95-54.63-33.12-23.43-61.93-38.34-64.64-63-.47-4.24-.81-14.68,0-26.18.98-13.92,2.98-20.18,4.09-29.45,1.19-9.94,1.46-24.36-3.17-42.77,5.25,6.89,10.39,14.16,15.44,21.91,37.79,57.98,20.8,66.12,61.36,120.27,8.96,11.96,28.64,36.72,52.86,73.86Z"/>
      <path class="cls-15" d="m980.09,578.3c7.05-5.61,18.05-13.49,32.73-20.52,6.81-3.27,21.74-9.86,65.45-18,30.74-5.72,39.07-5.39,65.45-12,27.51-6.9,38.91-12.39,45.41-23.32,1.33-2.24,8.02-14.04,4.09-26.18-2.4-7.43-7.74-11.77-17.18-19.43-7.79-6.32-14.93-10.51-19.84-13.09,15.68-.37,27.37,2.97,35.8,6.75,15.65,7.02,19.21,15.19,31.09,15.55,8.54.26,7.38-3.94,29.45-12.55,15.42-6.01,23-6.58,32.45-14.73,4.3-3.7,7.32-7.4,9.27-10.09,1.76,3.05,4.16,7.77,6,13.91,1.75,5.83,3.76,12.56,2.18,20.18-1.01,4.9-3.36,9.48-7.64,14.45-13.19,15.35-35.44,23.64-47.73,28.36-12.37,4.76-30.31,11.94-52.43,21.82-19.59,7.09-35.78,11.6-46.43,14.32-48.34,12.32-73.39,10.85-121.09,25.77-12.05,3.77-21.64,7.36-27.41,9.61-6.55-.27-13.09-.55-19.64-.82Z"/>
      <g id="Layer_75" data-name="Layer 75">
        <path class="cls-35" d="m879.86,589.95c36.61-4.36,73.23-8.73,109.84-13.09l218.39,44.86c-86.02,11.02-172.05,22.05-258.07,33.07-23.86-8.25-47.73-16.5-71.59-24.75.48-13.36.95-26.73,1.43-40.09Z"/>
        <polygon class="cls-16" points="1193.87 622.53 1181.58 624.18 951.03 655.12 870.6 627.13 878.52 602.74 896.9 603.89 1193.87 622.53"/>
        <path class="cls-36" d="m1206.74,622.01c-.11-.01-.23-.02-.34-.03-65.47-5.31-132.29-10.01-200.4-14.03-36.7-2.16-73.05-4.08-109.03-5.77-6.01-.28-12.01-.56-18-.83,1.27-3.91,2.54-7.82,3.81-11.74,4.27-.5,8.53-1,12.8-1.5,31.15-3.63,62.3-7.26,93.44-10.9l217.53,44.76.19.04Z"/>
        <path class="cls-30" d="m1181.58,624.18l-230.55,30.94-80.43-27.99,7.92-24.39c.15-.46.3-.92.45-1.39,1.27-3.91,2.54-7.82,3.81-11.74,4.27-.5,8.53-1,12.8-1.5.53,2.15.85,4.01,1.06,5.53.31,2.28.47,4.44.33,8.54-.01.53-.04,1.1-.07,1.71-.15,3.62-.5,8.61-1.08,15.93-.33,4.04-.61,7.42-.82,9.82,19.5,4.91,39,9.81,58.5,14.72,76.03-6.73,152.06-13.45,228.08-20.18Z"/>
        <path class="cls-41" d="m1206.74,622.01c-.11-.01-.23-.02-.34-.03.05,0,.1-.01.15-.01l.19.04Z"/>
      </g>
      <path class="cls-39" d="m739.83,546.76c-2.88,8.52-5.69,19.22-7.24,31.74-1.85,14.96-1.32,27.97-.17,38.03-.04.38-.18,1.53-.74,2.97-.59,1.57-1.68,3.49-3.66,5.09-2.39,1.93-5.52,2.96-8.8,2.61l-15.2-1.62c-6.56-.69-11.36-6.63-10.66-13.19-1.02-10.83-1.3-24.48.78-40.03,1.52-11.42,4-21.42,6.62-29.75.09-.8.63-5.01,4.41-8.06,1.92-1.55,4.3-2.52,6.86-2.66.64-.03,1.28-.02,1.93.05l15.2,1.62c6.56.69,11.36,6.63,10.67,13.2Z"/>
      <path class="cls-38" d="m731.68,619.5c-.59,1.57-1.68,3.49-3.66,5.09-2.39,1.93-5.52,2.96-8.8,2.61l-15.2-1.62c-6.56-.69-11.36-6.63-10.66-13.19-1.02-10.83-1.3-24.48.78-40.03,1.52-11.42,4-21.42,6.62-29.75.09-.8.63-5.01,4.41-8.06,1.92-1.55,4.3-2.52,6.86-2.66-2.57,5.06-4.37,9.54-5.62,13.06-2.34,6.57-9.03,27.36-5.32,54,.91,6.57,2.24,11.92,3.27,15.55,9.11,1.66,18.22,3.34,27.32,5Z"/>
      <path class="cls-9" d="m782.3,527.98c11.43-5.43,24.49,2.91,25.98,3.89,6.13,4.03,9.59,9.37,11.45,13.09,6.08-1.5,11.22-2.04,14.93-2.25,6.79-.38,10.25-.53,13.7,1.43,5.01,2.84,6.9,8.22,7.57,10.64,12.31-.49,18,3.73,20.45,6.14.91.9,1.43,1.6,6.55,10.84,7.69,13.9,8.21,15.35,8.59,16.77,1.52,5.6.48,5.15-.61,18.61-2.04,25.21-1.89,27.56-4.5,30.68-3.35,4-6.25,3.23-24.14,7.36-20.79,4.8-21.08,6.81-37.64,9.82-12.65,2.3-18.98,3.44-26.59,2.86-11.15-.85-13.59-3.88-35.18-11.45-24.68-8.66-28.31-7.1-33.14-12.68-5.74-6.64-5.53-14.53-3.27-39.68,5.59-62.35,9.35-70.37,16.36-73.23,6.41-2.61,13.74-.18,20.45,2.05,4.63,1.54,6.67,2.52,7.75,3.14,3.03,1.71,5.24,3.62,6.7,5.05.94-.85,2.47-2.07,4.57-3.07Z"/>
    </g>
  </g>
  <g id="assassin_lost_outline">
    <g id="Layer_73_copy" data-name="Layer 73 copy">
      <path class="cls-19" d="m719.42,748.37c-7.52,7.45-16.34,13.26-23.86,20.69-11.36,10.87-21.07,23.45-28.65,37.22-10.26,18.75-15.84,38.79-19.62,59.06-7.57,35.05-7.02,71.04-2.16,106.47,4.97,40.89,12,81.55,23.45,121.16-49.06,8.79-99.99,7.82-148.51-3.78h-.02s-.77-.19-.77-.19l.02-.8c.75-37.49,4.98-74.95,13.07-111.62,7.91-36.69,20.84-72.73,42.14-103.87,15.62-23.45,34.22-44.77,54.57-64.18,20.2-19.45,40.73-39.32,66.16-51.92,16.9-8.33,35.58-13.07,54.42-13.78l.07,2.28c-28.04.43-55.28,10.64-77.7,27.34-15.12,10.99-28.64,24.01-42.1,36.96-27.16,25.62-50.37,55.54-67.51,88.72-21.27,41.66-30.76,88.16-36.78,134.25-2.28,18.54-3.77,37.18-4.37,55.86l-.76-.98h.02c36.04,8.29,73.28,11.46,110.19,8.77,12.3-.88,24.55-2.4,36.7-4.52l-.64,1.02c-11.14-39.44-18.37-79.88-23.53-120.49-4.16-30.4-6.11-61.56-1.25-92.05,4.11-26.18,9.18-51.46,22.26-75.17,7.74-14.04,17.65-26.87,29.23-37.93,7.8-7.22,15.87-14.65,25.94-18.52h0Z"/>
      <path class="cls-19" d="m877.43,788.6c12.3,9.01,23.39,19.82,36.56,27.57,32.99,19.01,74.38,19.19,110.68,10.89,7.41-1.79,14.68-4.13,21.84-6.77l.12.27c-6.86,3.46-14.05,6.26-21.4,8.52-34.93,10.8-80.51,7.63-112.01-11.62-6.54-4.08-12.55-8.91-18.36-13.89-5.82-4.97-11.57-10.02-17.59-14.72l.18-.24h0Z"/>
      <path class="cls-19" d="m553.95,912.65c-6.32-14.61-11.76-29.62-16.7-44.76-4.82-15.22-10.23-30.4-11.63-46.46-2.25-24.07,9.41-41.91,20.71-61.83,30.21-52.1,73.49-88.45,127.59-113.97,14.28-7.05,28.84-13.67,44-18.58-7.46,2.79-14.79,5.87-22.01,9.21-71.04,33.24-118.5,70.08-155.98,140.3-13.69,23.35-14.97,42.12-7.92,67.98,6.27,22.99,13.36,45.83,21.92,68.1h0Z"/>
      <path class="cls-19" d="m547.42,760.26c2.74-10.81,5.89-21.52,9.58-32.06,3.74-10.52,8.18-20.75,12.18-31.16,6.09-15.56,12.02-31.19,17.57-46.95,1.78-4.74,3.63-11.29,5.93-15.79,2.68-5.04,5.78-9.73,9.29-14.18,7-8.87,15.68-16.25,24.67-22.98,13.56-9.86,27.44-19.23,41.77-27.97,9.58-5.75,19.32-11.21,29.32-16.19l.14.26c-14.35,8.56-28.45,17.51-42.19,27.01-9.08,6.39-18.26,12.76-27.17,19.38-8.85,6.58-17.44,13.61-24.44,22.16-3.47,4.23-6.62,8.84-9.25,13.6-2.21,4.15-4.28,10.94-6.01,15.42-9.53,26.46-20.53,51.72-30.96,77.68-3.87,10.44-7.21,21.08-10.14,31.83l-.29-.08h0Z"/>
      <path class="cls-19" d="m866.7,648.11c22.78,25.89,48.04,55.64,69.69,82.44,7.42,9.44,15.07,18.61,22.97,27.64,11.79,13.43,23.26,27.46,37.21,38.71,23.28,17.73,54.39,27.32,83.53,22.76,11.7-1.94,22.55-7.25,32.99-12.77,7.81-4.18,15.66-8.89,23.19-13.59,12.73-7.85,24.88-16.49,36.42-26.01,13.83-11.52,28.37-22.35,43.54-32.1,15.22-9.7,30.95-18.58,47.24-26.39,13.57-6.44,27.65-12.23,42.29-15.88,8.88-2.54,19.25-2.16,26.89,3.59,0,0-1.52.01-1.52.01,3.49-2.62,6.7-5.62,9.33-9.04,9.33-12.08,6.64-23.96-3.15-34.76-14-17.36-27.8-34.88-42.15-51.95-2.78-3.39-5.88-6.69-9.21-9.54-16.62-14.8-32.81-30.3-51.5-42.51-3.75-2.4-7.58-4.67-11.49-6.81.1.04-29.07-12.74-29.04-12.74.02,0,29.28,12.25,29.3,12.26,3.95,2.09,7.83,4.32,11.62,6.68,18.88,12,35.37,27.27,52.16,41.95,3.38,2.89,6.6,6.22,9.43,9.62,14.51,16.97,28.46,34.39,42.6,51.65,8.24,9.04,12.77,19.97,7.07,31.76-3.12,6.56-8.44,11.79-14.18,16.05-7.16-5.74-16.94-6.16-25.53-3.66-14.45,3.64-28.28,9.37-41.72,15.8-16.13,7.79-31.77,16.67-46.86,26.34-15.09,9.74-29.38,20.51-43.25,31.95-11.62,9.53-23.96,18.27-36.78,26.13-7.6,4.71-15.49,9.42-23.39,13.63-10.69,5.63-21.79,11-33.86,12.97-30.06,4.58-61.52-5.18-85.36-23.65-14.01-11.48-25.4-25.65-37.18-39.28-7.82-9.09-15.46-18.39-22.79-27.87-21.38-27.18-46.17-56.98-68.5-83.38h0Z"/>
      <path class="cls-19" d="m1331.28,697.2c11.58,22.8,22.48,49.17,32.38,72.91,3,7.37,7.41,17.26,10.24,24.57,11.48,28.99,17.34,60.08,17.96,91.23.04,3.77.07,9.57-.06,13.32,0,0-.3,0-.3,0-.28-3.75-.66-9.43-1.01-13.25-2.7-30.73-8.32-61.39-18.83-90.45-5.43-14.14-14.05-35.1-19.64-49.38-6.22-16.42-14.2-33.26-20.73-48.95h0Z"/>
      <path class="cls-19" d="m1363.82,841.14c15.82,39.23,35.95,76.65,59.79,111.57,3.35,5.04,6.66,10.13,9.72,15.36,24.62,41.78,41.56,87.58,56.1,133.68,0,0,.47,1.52.47,1.52l-1.57.17c-13.26,1.46-45.71,4.94-58.44,6.33-84.45,8.83-169.35,13.42-254.23,14.95,0,0-1.18.02-1.18.02l-.14-1.16c-7.16-58.89-15.68-128.23-22.19-186.79-1.89-18.89-7.35-78.43-9.24-98.1,2.11,20.09,8.55,79,10.55,97.95,4.82,37.53,9.5,78.17,14.41,115.53,0,0,9.07,71.08,9.07,71.08l-1.32-1.14c84.81-1.76,169.6-6.62,254.01-15.08,12.7-1.31,45.39-4.83,58.41-6.19,0,0-1.1,1.69-1.1,1.69-14.45-45.96-30.83-91.78-55.09-133.58-3.01-5.23-6.25-10.3-9.56-15.35-23.53-35.18-43.29-72.96-58.47-112.46h0Z"/>
      <path class="cls-19" d="m1125.47,801.52c4.56,8.09,9.09,16.2,13.49,24.37,12.79,24.74,23.24,50.6,35.22,75.74,3.41,7.48,8.4,17.89,11.56,25.37,8.69,21.57,16.98,43.21,24.45,65.22,1.46,4.41,2.84,8.85,3.9,13.37-2.83-8.84-6.31-17.44-9.82-26.02-6.33-15.23-14.78-36.55-21.15-51.45-7.6-16.86-15.72-33.63-23.15-50.61-7.55-16.96-14.3-34.23-22.33-50.97-3.98-8.37-8.21-16.63-12.18-25.02h0Z"/>
      <path class="cls-19" d="m1238.77,754.35c26.52,57.47,58.46,112.63,90.24,167.32,2.08,3.68,4.23,7.33,6.29,11.02l-.25.16c-2.46-3.45-4.82-6.96-7.2-10.46-16.51-24.56-31.45-50.33-45.09-76.56-15.52-29.83-31.49-60.85-43.99-91.49h0Z"/>
      <path class="cls-19" d="m1307.36,855.05c3.63,10.6,7.1,21.12,11.27,31.49,3.46,9.05,9.26,21.73,13.27,30.7-13.1-18.23-21.66-39.92-24.55-62.18h0Z"/>
      <path class="cls-19" d="m689.37,958.24c4.67,39.92-4.77,90.1-24.08,125.39,0,0-.27-.12-.27-.12,7.38-20.17,13.95-40.51,18.84-61.39,4.54-20.9,7.01-42.45,5.22-63.84,0,0,.3-.03.3-.03h0Z"/>
      <path class="cls-19" d="m961.32,653.24c10.74,7.35,34.65,23.38,44.9,30.57,4.96,3.43,9.9,6.9,15.09,9.87,17.76,10.51,33.14,7.63,50.94-.75,21.95-9.97,42.41-22.74,62.11-36.59,19.98-13.99,43.84-22.1,68.12-23.74,6.05-.4,12.11-.53,18.15-.25v.3c-6.03.19-12.05.56-18.01,1.32-23.85,2.68-46.88,11.14-66.52,24.97-19.86,13.82-40.8,26.18-62.96,35.99-18.4,8.4-34.44,11.09-52.59.06-10.35-6.33-19.78-13.86-29.79-20.67,0,0-29.62-20.82-29.62-20.82l.17-.25h0Z"/>
    </g>
    <g id="head-4" data-name="head">
      <path class="cls-48" d="m843.58,409.19c2.23,8.26,5.39,17.01,9.9,25.92,4.92,9.74,15.07,29,27.34,40.57,3.52,3.33.82,1.31,31.36,27.82,0,0,9.02,7.83,31.37,26.45,5.34,4.46,5.83,4.78,6.81,5.46,11.39,7.87,28.75,9.79,42.55,2.73,5.45-2.79,6.74-5.92,15.82-18.96,11.72-16.85,1.6-.39,31.91-42.95,3.78-5.31,6.84-9.59,9.36-13.15h0c8.58-12.12,10.91-15.79,13.95-22.44,7.03-15.37,8.76-26.76,9.21-30.07.53-3.94.79-7.67.86-11.17"/>
      <path class="cls-6" d="m937.55,431.43c4.81,3.2,9.63,6.07,14.83,8.42,1.49.64,3.42,1.54,4.91,1.74,3.28.13,6.48-2.44,9.13-4.41,2.97-2.31,5.9-4.88,9.18-6.97-2.44,3.02-4.84,5.99-7.64,8.74-3.01,2.83-6.33,5.81-10.94,5.64-4.15-.83-7.48-2.96-10.9-5.24-3.21-2.23-6.17-4.84-8.56-7.91h0Z"/>
      <path class="cls-6" d="m939.45,481.68c18.4-6.33,39.41-5.53,57.27,2.18-9.51-1.64-18.94-3.01-28.55-3.32-9.61-.43-19.11.21-28.72,1.14h0Z"/>
      <path class="cls-6" d="m889.69,484.75c4.84,16.14,7.3,33.09,6.47,49.95-1.38-10.42-2.46-20.82-3.92-31.22-.82-6.26-1.99-12.41-2.55-18.73h0Z"/>
      <path class="cls-6" d="m1054.96,527.24c-2.85-10.42-4.33-21.13-5.23-31.87-.77-10.75-.95-21.56.27-32.3,1.07,9.27,1.94,22.64,2.72,32.07.68,9.46,1.85,22.73,2.24,32.1h0Z"/>
    </g>
    <g id="hood">
      <path class="cls-19" d="m697.67,553.69c-16.08-5.26-30.14-15.16-43.84-24.85-19.14-14.44-42.24-35.14-40.67-61.28.54-8.63,3.5-16.79,6.93-24.49,7.04-15.35,16.01-29.61,24.42-44.18,18.98-32.57,37.27-65.76,50.93-100.95,7.75-19.54,11.79-40.41,20.72-59.54,4.34-9.56,9.68-18.84,15.03-27.85,3.29-5.45,6.74-10.81,10.83-15.72,5.5-6.51,11.44-12.43,17.21-18.53,11.64-12.1,23.12-24.35,34.47-36.72,14.07-15.36,28.3-31.18,42.07-46.86,19.37-22.14,41.54-42.4,67.63-56.42,11.26-5.82,23.67-10.45,36.51-10.38,12.9.12,24.96,5.82,36.16,11.55,22.31,11.9,42.64,27.12,62.78,42.25,26.94,20.09,53.63,40.83,76.83,65.28,23.14,24.4,43.23,52.03,58.14,82.21,7.95,15.98,12.33,33.6,19.45,49.88,1.05,2.21,2.31,4.87,3.38,7.07,0,0,.75,1.38.75,1.38l2.98,5.52c1.74,2.89,4.67,7.89,6.59,10.68,6.52,10.07,18.8,25.78,26.15,35.42,15.21,20.11,29.66,40.82,43.18,62.11,6.74,10.66,13.52,21.36,19.19,32.66,7.92,15.42,12.87,33.8-.35,48-5.94,6.18-13.4,10.42-20.8,14.51-9.24,5.03-18.75,9.52-28.27,13.99-40.15,18.14-81.83,33.85-125.26,41.94-8.27,1.56-16.6,2.69-24.91,3.88-24.9,3.68-49.5,9.48-73.65,16.55-8.04,2.41-15.95,5.24-23.85,8.09,31.44-11.85,64.23-20.07,97.39-25.43,8.31-1.26,16.62-2.4,24.86-4,24.77-4.57,48.88-12.04,72.51-20.69,23.63-8.62,46.78-18.68,69.28-29.92,10.98-5.76,22.67-11.19,31.44-20.1,5.7-5.93,8.23-14.39,7.58-22.5-.7-8.25-4.03-16.09-7.7-23.44-5.68-11.2-12.47-21.8-19.23-32.39-13.56-21.21-27.91-41.9-42.91-62.12-8.22-11.01-20.52-26.94-27.65-38.36-.97-1.55-3.84-6.48-4.86-8.14-.55-1-3.23-6.05-3.74-6.97-1.03-2.24-2.38-4.91-3.38-7.15-7.14-16.38-11.44-33.84-19.56-49.77-7.37-15-16.5-29.21-26.2-42.8-39.18-54.82-94.5-95.28-149.49-133.02-14.07-8.81-28.6-17.71-44.65-22.22-7.98-2.25-16.36-2.18-24.4-.33-16.22,3.77-30.99,12.37-44.48,21.96-13.58,9.76-26.19,20.92-37.73,33.02-4.9,5.24-11.85,13.35-16.71,18.82-22.2,25.22-44.49,50.39-67.51,74.88-5.73,6.14-11.67,12.12-16.97,18.48-5.27,6.29-9.5,13.78-13.7,20.82-8.52,14.41-15.84,29.44-20.72,45.45-2.53,7.97-4.92,16.06-7.71,24.02-16.87,47.7-43.03,91.31-68.4,134.79-4.14,7.29-8.23,14.61-11.66,22.21-12.97,27.35-6.77,45.92,13.94,66.99,11.82,11.8,25.63,21.53,39.7,30.48,7.11,4.42,14.65,8.01,21.94,12.25h0Z"/>
      <path class="cls-19" d="m978.86,570.83c-1.15.19-1.74-.78-2.45-1.36,0,0-2.03-1.79-2.03-1.79-17.63-15.4-39.9-25.17-62.86-29.26-28.73-3.57-57.88-1.52-86.79-1.84,0,0-5.44-.03-5.44-.03h-2.72c-.91,0-1.81,0-2.75-.81.88-.85,1.78-.89,2.69-.91l2.72-.13,5.44-.26c18.16-.88,36.33-1.42,54.51-.92,10.93.3,21.91.62,32.76,2.25,10.87,1.82,21.35,5.43,31.38,9.91,12.52,5.6,24.06,13.35,34.03,22.77,0,0,.99.94.99.94.33.32.57.73.52,1.43h0Z"/>
      <path class="cls-19" d="m762.39,522.54c-9.91-4.62-19.94-15.13-16.6-26.87,4.88-13.96,18.47-22.02,29.13-31.1,19.1-15.51,39.8-32.57,58.5-48.3,5.33-4.96,14.35-10.81,20.41-15.04,22.53-15.55,46.02-30.96,72.79-38.04,10.28-2.72,20.98-4.4,31.63-3.41,12.7,1.17,24.98,4.94,37.04,8.78,24.11,7.75,47.54,17.45,71.08,26.68,23.87,8.72,45.75,21.95,67.27,35.24,12.44,7.66,30.94,18.71,42.92,26.9,28.41,19.28,19.92,34.02-8.87,44.98-7.86,3.21-15.84,6.08-24.06,8.24-12.28,3.2-24.97,4.63-37.44,6.66-18.66,3.07-37.35,6.59-55.41,12.26-30.96,9.31-56.59,26.82-79.29,49.54,10.25-13.49,23.76-24.36,38.3-32.95,29.37-17.09,62.91-24.99,96.09-30.74,12.47-2.14,24.99-3.64,37.18-6.93,8.07-2.19,15.97-5.11,23.69-8.34,14.48-5.96,35.41-15.99,17.91-32.71-9.16-8.51-20.46-14.5-30.96-21.27-21.01-12.47-54.6-34.38-76.49-44.11-27.1-11.55-54.36-22.97-82.44-31.9-12.02-3.7-24.16-7.32-36.71-8.36-41.98-2.12-80.39,25.64-113.86,47.82-3.55,2.25-6.76,4.9-9.96,7.65-12.67,10.52-46.14,38.19-58.35,48.53-10.45,9.12-23.43,16.93-28.36,30.42-3.12,11.3,7.04,19.79,14.84,26.35h0Z"/>
    </g>
    <g id="arm">
      <path class="cls-6" d="m866.56,644.54c-.09,51.76,4.86,103.56,13.6,154.58,2.44,13.92,5.22,27.76,8.28,41.56,4.07,18.39,8.83,37.22,6.64,56.24-2.16,21.24-8.19,42.14-18.13,61.05-3.28,6.33-7.26,12.37-12.05,17.66-6.4,6.97-13.02,13.6-18.88,21.01-8.96,10.94-16.71,22.76-24.6,34.49-2.69,3.89-5.52,7.77-9.04,11.14-10.79,10.61-27.82,10.78-41.22,5.54-4.51-1.75-8.98-3.76-12.86-6.71-7.66-5.92-13.29-13.7-19.06-21.28-10.89-15.09-22.31-30.82-32.55-46.35-3.81-5.99-7.62-12.14-9.91-18.94-3.51-11.43-3.69-23.67-1.98-35.39,2.91-18.72,7.61-37.07,13.53-55.04,6.01-17.91,13.8-35.12,20.24-52.85,16.03-44.12,28.61-90.17,30.86-137.26.44-9.4.49-18.81.15-28.2l2.97-.03c-.39,56.81-13.35,112.77-32.34,166.09-6.32,17.8-13.82,35.14-19.94,52.91-3.04,8.89-5.68,17.92-7.98,27.04-4.3,18.07-9.2,36.89-5.6,55.46,1.36,9.3,6.36,17.41,11.39,25.31,7.72,11.8,16.04,23.28,24.35,34.68,5.55,7.57,11.29,15.06,17.51,22.07,3.11,3.48,6.41,6.76,10.06,9.48,3.67,2.74,7.93,4.58,12.2,6.2,12.49,4.95,28.28,5.14,38.56-4.48,6.75-6.36,11.69-14.6,17.09-22.16,8.14-11.59,16.62-23.01,26.2-33.48,6.32-6.95,13.07-13.52,17.74-21.72,11.61-20.3,18.58-43.25,21.06-66.47,2.18-18.82-2.5-37.27-6.5-55.56-2.02-9.21-3.94-18.46-5.69-27.73-10.41-55.67-16.49-112.2-17.05-168.86h2.97Z"/>
      <path class="cls-6" d="m743.97,1025.16c-.54,0-1.02-.45-1.03-1,0,0,.36.75.36.75-6.52-5.43-12.4-11.57-18.03-17.88-40.11-43.39-68.41-98.19-77.68-156.74,0,0-.01-.09-.01-.09v-.13s0,0,0,0h3c1,7.19,2.6,16.66,4.45,24.53,6.67,28.52,18.23,56.12,33.66,81.03,10.97,17.94,24.54,34.05,38.4,49.8,5.55,6.3,11.25,12.45,17.54,17.94l.36.75c.02-.51-.51-1.01-1.01-.98,0,0,0,2.04,0,2.04h0Z"/>
    </g>
    <g id="hand">
      <path class="cls-28" d="m763.85,610.37c1.55-17.03,4.15-33.82,5.51-50.86.63-6.4,1.05-12.86,2.26-19.23,1.23-7.31,4.86-13.52,12.64-15.16,6.86-1.48,13.53.33,19.74,2.81,6.22,2.47,12.11,6.45,15.5,12.47,4.62,7.9,2.93,17.35,2.14,25.96-1.82,16.97-3.38,33.94-4.11,51h-.5c-.54-17.1.41-34.22,1.57-51.26l.41-6.37c.35-6.05,1.16-12.48-2.09-17.87-2.99-5.27-8.61-8.54-14.22-10.67-7.12-2.8-16.2-5.25-22.82-.46-4.74,3.89-5.14,10.48-6.07,16.39-.53,4.19-.92,8.44-1.35,12.69-.85,8.51-1.85,17.01-3.12,25.47-1.22,8.47-2.71,16.9-4.99,25.17l-.49-.09h0Z"/>
      <path class="cls-28" d="m819.7,544.19c2.1-.44,4.17-.91,6.24-1.44,4.26-1.08,8.56-1.14,12.91-1.31,4.42-.09,9.48.22,12.93,3.46,3.54,3.08,5.61,7.5,6.3,12.09.28,2.14.3,4.42.4,6.57.33,8.58.21,17.15-.08,25.71-.16,4.35-.6,14.97-.71,19.22-.09,2.14-.1,4.26-.09,6.4l-.44.04c-2.09-16.98-1.67-34.21-2.2-51.26,0,0-.08-3.19-.08-3.19.07-4.86-1.43-10.05-4.96-13.52-2.85-3-7.12-3.23-11.09-3.41-2.1-.07-4.23-.05-6.35.01-4.32-.06-8.44.76-12.71,1.07,0,0-.06-.43-.06-.43h0Z"/>
      <path class="cls-28" d="m855.2,554.33c8.87-.16,19,1.35,24.52,9.1,1.39,1.78,2.09,4.06,3.02,6.09.9,1.97,1.93,3.89,3.03,5.78,6.47,10.83,8.16,12.32,6.6,25.35-.85,7.76-1.42,18.75-2.21,26.42-.51,5.91-1.07,12.25-7.62,14.53-7.47,2.2-15.18,3.19-22.69,5.2-8.66,1.96-16.87,4.97-25.46,7.29-4.32,1.11-8.71,1.93-13.04,2.73-10.9,2.11-22.51,4.03-33.38.56-10.46-3.67-20.56-8.11-31.12-11.37-6.29-2.11-12.63-3.8-19.02-5.66-2.13-.67-4.43-1.39-6.53-2.86-2.07-1.51-3.61-3.31-4.91-5.39-3.68-6.11-3.26-13.7-3.08-20.38.44-8.92,1.38-17.69,2.2-26.5,1.93-17.62,3.41-35.4,7.88-52.62,1.33-4.34,3-9.32,7.1-11.88,6.28-3.61,13.76-1.97,20.15.29,4.2,1.58,8.35,3.12,12.17,5.55,1.88,1.28,3.42,2.89,5.05,4.37l-.23.27c-3.42-2.87-7.01-5.14-11.31-6.42-7.8-2.59-16.87-6.55-24.59-2.08-7.02,4.35-8.8,28.17-10.05,36.55-1.89,17.46-3.64,35.14-4.73,52.64-.39,8.09-.73,17.57,6.34,22.8,3.34,2.23,7.94,3.07,11.86,4.34,12.75,3.73,25.31,8.35,37.54,13.46,4.08,1.67,8.09,3.16,12.34,3.71,8.66,1.35,17.33-.25,25.91-1.74,8.79-1.34,17.13-3.52,25.59-6.24,10.6-3.18,21.5-5.3,32.33-7.49,8.38-1.47,8.95-6.43,9.58-13.82.41-4.38.74-8.79,1.09-13.19l1.04-13.21c.22-3.25.69-6.52.41-9.74-.62-5.42-4.29-9.8-6.87-14.49-1.11-1.93-2.16-3.92-3.08-5.97-.92-1.98-1.45-4.02-2.79-5.77-5.21-7.38-14.81-8.32-23.05-9.85,0,0,.04-.35.04-.35h0Z"/>
    </g>
    <g id="Layer_75_copy" data-name="Layer 75 copy">
      <path class="cls-6" d="m725.81,626.01c-2.25,1.24-4.94,1.65-7.49,1.32l-2.55-.21-10.19-.85c-3.46-.1-7.16-1.35-9.56-4.02-2.48-2.35-3.9-7-3.47-9.78-.62-5.88-.89-11.8-.88-17.72-.02-17.75,2.85-35.5,8.34-52.38.41-4.54,4.62-9.77,9.78-10.73,1.66-.4,3.46-.36,5.08-.12l9.76,1.27c2.85.4,7.09.62,9.47,2.42-2.46-1.68-6.7-1.56-9.53-1.87,0,0-9.81-.81-9.81-.81-6.38-1.11-12.67,3.78-13.2,10.17-1.65,5.67-3.2,11.38-4.35,17.18-3.45,17.22-4.54,34.93-3.03,52.44-.4,3.22.61,6.59,2.83,9.03,2.21,2.54,5.34,3.68,8.7,3.9,0,0,10.14,1.32,10.14,1.32,3.3.49,6.87,1.04,9.98-.54h0Z"/>
      <path class="cls-49" d="m891.5,588.43c32.53-3.81,65.06-7.62,97.59-11.43,73,14.91,146,29.82,219,44.73-21.15,2.72-210.7,27.03-258.07,33.07-20.52-7.15-41.05-14.29-61.57-21.44"/>
      <path class="cls-6" d="m1151.95,620c-83.57-4.64-177.28-10.36-260.79-15.92,83.57,4.64,177.28,10.36,260.79,15.92h0Z"/>
    </g>
  </g>
</svg>